<?xml version="1.0" standalone="no"?>
<!DOCTYPE svg PUBLIC "-//W3C//DTD SVG 20010904//EN"
 "http://www.w3.org/TR/2001/REC-SVG-20010904/DTD/svg10.dtd">
<svg version="1.0" xmlns="http://www.w3.org/2000/svg"
 width="496.000000pt" height="151.000000pt" viewBox="0 0 496.000000 151.000000"
 preserveAspectRatio="xMidYMid meet">

<g transform="translate(0.000000,151.000000) scale(0.100000,-0.100000)"
fill="#000000" stroke="none">
<path d="M0 755 l0 -755 2480 0 2480 0 0 755 0 755 -2480 0 -2480 0 0 -755z
m1839 588 c0 -10 -60 -247 -132 -528 l-132 -510 181 -5 181 -5 -36 -105 -36
-105 -317 -3 c-242 -2 -318 1 -318 10 0 11 270 1076 307 1211 l16 57 143 0
c131 0 144 -2 143 -17z m1239 7 c-1 -5 -149 -304 -328 -664 l-325 -655 -107 0
-108 -1 332 665 333 665 103 0 c61 0 102 -4 100 -10z m718 -7 c-3 -10 -44
-169 -91 -353 -47 -184 -118 -463 -158 -620 l-73 -285 -148 -3 c-137 -2 -147
-1 -142 15 3 10 75 293 161 628 86 336 158 616 160 623 3 9 43 12 150 12 135
0 146 -1 141 -17z m-2978 -505 l-3 -102 -238 -90 c-131 -49 -234 -92 -230 -96
4 -4 113 -47 241 -96 l232 -89 0 -103 c0 -94 -2 -103 -17 -98 -10 4 -169 69
-353 145 l-335 140 0 101 0 102 345 144 c190 79 349 143 353 144 4 0 6 -46 5
-102z m3647 -42 l340 -142 3 -100 3 -101 -323 -133 c-178 -74 -338 -140 -355
-147 l-33 -13 0 103 0 103 239 89 c132 50 237 93 233 97 -4 4 -110 47 -237 96
l-230 88 -3 102 c-2 78 0 102 10 101 7 0 166 -64 353 -143z"/>
</g>
</svg>
